<svg xmlns="http://www.w3.org/2000/svg" xmlns:xlink="http://www.w3.org/1999/xlink" width="100.0" height="100.0" viewBox="-1.09 -1.59 9.18 3.6799999999999997" preserveAspectRatio="xMinYMin meet"><g transform="matrix(1,0,0,-1,0,0.4999999999999998)"><path fill-rule="evenodd" fill="#66cc99" stroke="#555555" stroke-width="0.18359999999999999" opacity="0.6" d="M 0.0,1.75 L 7.0,1.75 L 7.073512855247171,1.7463885450041476 L 7.146317741512096,1.7355889603024228 L 7.2177135079408465,1.7177052517991567 L 7.287012574273818,1.692909649383465 L 7.353547552619498,1.6614409482612662 L 7.416677674764702,1.623602209226909 L 7.475794963122734,1.5797578400220527 L 7.5303300858899105,1.5303300858899105 L 7.579757840022053,1.475794963122734 L 7.623602209226909,1.4166776747647016 L 7.661440948261267,1.3535475526194982 L 7.6929096493834646,1.2870125742738172 L 7.717705251799156,1.2177135079408468 L 7.735588960302422,1.1463177415120962 L 7.746388545004148,1.0735128552471704 L 7.75,1.0 L 7.75,-0.5 L 7.746388545004148,-0.5735128552471705 L 7.735588960302422,-0.6463177415120962 L 7.717705251799156,-0.7177135079408468 L 7.6929096493834646,-0.7870125742738173 L 7.661440948261266,-0.8535475526194983 L 7.623602209226909,-0.9166776747647016 L 7.579757840022053,-0.9757949631227341 L 7.5303300858899105,-1.0303300858899105 L 7.475794963122734,-1.0797578400220527 L 7.416677674764702,-1.123602209226909 L 7.353547552619498,-1.1614409482612662 L 7.287012574273818,-1.192909649383465 L 7.2177135079408465,-1.2177052517991567 L 7.146317741512096,-1.2355889603024228 L 7.073512855247171,-1.2463885450041476 L 7.0,-1.25 L 6.0,-1.25 L 5.926487144752829,-1.2463885450041476 L 5.853682258487904,-1.2355889603024228 L 5.7822864920591535,-1.2177052517991567 L 5.712987425726182,-1.192909649383465 L 5.646452447380502,-1.1614409482612662 L 5.583322325235298,-1.1236022092269091 L 5.524205036877266,-1.0797578400220529 L 5.4696699141100895,-1.0303300858899105 L 4.8519102131884,-0.41257038496822107 L 4.335410196624968,-0.6708203932499369 L 4.2718534279356914,-0.6989962186733301 L 4.205960730280783,-0.7211658461007473 L 4.138298293545152,-0.7371387806936349 L 4.069447514281556,-0.7467777733436588 L 4.0,-0.75 L 3.0,-0.75 L 2.930552485718444,-0.7467777733436588 L 2.861701706454847,-0.7371387806936349 L 2.7940392697192173,-0.7211658461007473 L 2.728146572064308,-0.69899621867333 L 2.6645898033750317,-0.6708203932499369 L 2.0,-0.3385254915624211 L 1.3354101966249685,-0.6708203932499369 L 1.269509624074857,-0.6999032522649322 L 1.2011229998125816,-0.722529957127307 L 1.1308811461507782,-0.7384917911407402 L 1.059431998691601,-0.7476415167254434 L 0.9874346295404833,-0.7498947335894652 L 0.9155531677928661,-0.7452306572667151 L 0.8444506733734691,-0.7336923108402 L 0.7747830207379724,-0.7153861280819523 L 0.707192848855991,-0.6904809716704216 L 0.6423036332828389,-0.6592065755416447 L 0.580713935001377,-0.6218514257424923 L 0.522991879084652,-0.578760099333747 L 0.4696699141100894,-0.5303300858899106 L -0.5303300858899106,0.4696699141100894 L -0.5797578400220528,0.5242050368772659 L -0.623602209226909,0.5833223252352984 L -0.6614409482612662,0.6464524473805016 L -0.692909649383465,0.7129874257261826 L -0.7177052517991567,0.7822864920591532 L -0.7355889603024228,0.8536822584879036 L -0.7463885450041476,0.9264871447528293 L -0.75,0.9999999999999999 L -0.7463885450041476,1.0735128552471704 L -0.7355889603024228,1.1463177415120962 L -0.7177052517991567,1.2177135079408465 L -0.6929096493834651,1.2870125742738172 L -0.6614409482612663,1.3535475526194982 L -0.6236022092269091,1.4166776747647014 L -0.5797578400220529,1.475794963122734 L -0.5303300858899107,1.5303300858899105 L -0.47579496312273445,1.5797578400220524 L -0.41667767476470163,1.623602209226909 L -0.3535475526194984,1.6614409482612662 L -0.28701257427381777,1.692909649383465 L -0.21771350794084682,1.7177052517991567 L -0.1463177415120965,1.7355889603024228 L -0.07351285524717034,1.7463885450041476 L 0.0,1.75 z" /></g></svg>