<svg xmlns="http://www.w3.org/2000/svg" xmlns:xlink="http://www.w3.org/1999/xlink" width="100.0" height="100.0" viewBox="0.41999999999999993 -1.08 1.6600000000000001 2.16" preserveAspectRatio="xMinYMin meet"><g transform="matrix(1,0,0,-1,0,0.0)"><path fill-rule="evenodd" fill="#66cc99" stroke="#555555" stroke-width="0.0432" opacity="0.6" d="M 1.995184726672197,-0.0980171403295606 L 1.9807852804032304,-0.19509032201612825 L 1.9569403357322088,-0.29028467725446233 L 1.9238795325112867,-0.3826834323650898 L 1.881921264348355,-0.47139673682599764 L 1.8314696123025453,-0.5555702330196022 L 1.7730104533627369,-0.6343932841636455 L 1.7071067811865475,-0.7071067811865475 L 1.6343932841636455,-0.773010453362737 L 1.5555702330196022,-0.8314696123025452 L 1.471396736825998,-0.8819212643483549 L 1.3826834323650898,-0.9238795325112867 L 1.2902846772544623,-0.9569403357322089 L 1.1950903220161284,-0.9807852804032304 L 1.0980171403295609,-0.9951847266721968 L 1.0,-1.0 L 0.9019828596704393,-0.9951847266721969 L 0.8049096779838718,-0.9807852804032304 L 0.7097153227455378,-0.9569403357322089 L 0.6173165676349103,-0.9238795325112867 L 0.5286032631740023,-0.881921264348355 L 0.49999999999999994,-0.8647771281738245 L 0.5555702330196023,-0.8314696123025452 L 0.6343932841636455,-0.773010453362737 L 0.7071067811865476,-0.7071067811865475 L 0.773010453362737,-0.6343932841636455 L 0.8314696123025452,-0.5555702330196022 L 0.881921264348355,-0.47139673682599764 L 0.9238795325112867,-0.3826834323650898 L 0.9569403357322088,-0.29028467725446233 L 0.9807852804032304,-0.19509032201612825 L 0.9951847266721969,-0.0980171403295606 L 1.0,0.0 L 0.9951847266721969,0.0980171403295605 L 0.9807852804032303,0.19509032201612872 L 0.9569403357322088,0.2902846772544625 L 0.9238795325112865,0.3826834323650904 L 0.8819212643483548,0.4713967368259979 L 0.8314696123025452,0.5555702330196022 L 0.7730104533627367,0.6343932841636459 L 0.7071067811865474,0.7071067811865477 L 0.6343932841636456,0.7730104533627369 L 0.5555702330196018,0.8314696123025455 L 0.49999999999999994,0.8647771281738245 L 0.5286032631740021,0.8819212643483549 L 0.6173165676349097,0.9238795325112865 L 0.7097153227455375,0.9569403357322088 L 0.8049096779838714,0.9807852804032303 L 0.9019828596704396,0.9951847266721969 L 0.9999999999999998,1.0 L 1.09801714032956,0.9951847266721969 L 1.1950903220161284,0.9807852804032304 L 1.290284677254462,0.9569403357322089 L 1.38268343236509,0.9238795325112866 L 1.4713967368259975,0.881921264348355 L 1.5555702330196017,0.8314696123025455 L 1.6343932841636457,0.7730104533627369 L 1.7071067811865475,0.7071067811865477 L 1.7730104533627367,0.6343932841636459 L 1.8314696123025453,0.5555702330196022 L 1.881921264348355,0.4713967368259979 L 1.9238795325112865,0.3826834323650904 L 1.9569403357322088,0.2902846772544625 L 1.9807852804032304,0.19509032201612872 L 1.995184726672197,0.0980171403295605 L 2.0,0.0 L 1.995184726672197,-0.0980171403295606 z" /></g></svg>