<?xml version="1.0" encoding="UTF-8" standalone="no"?>
<!DOCTYPE svg PUBLIC "-//W3C//DTD SVG 1.1//EN"
 "http://www.w3.org/Graphics/SVG/1.1/DTD/svg11.dtd">
<!-- Generated by graphviz version 3.0.0 (20220315.2325)
 -->
<!-- Title: finite_state_machine Pages: 1 -->
<svg width="576pt" height="130pt"
 viewBox="0.00 0.00 576.00 129.59" xmlns="http://www.w3.org/2000/svg" xmlns:xlink="http://www.w3.org/1999/xlink">
<g id="graph0" class="graph" transform="scale(0.736797 0.736797) rotate(0) translate(4 171.89)">
<title>finite_state_machine</title>
<polygon fill="white" stroke="transparent" points="-4,4 -4,-171.89 777.76,-171.89 777.76,4 -4,4"/>
<!-- Αρχικό πρόγραμμα -->
<g id="node1" class="node">
<title>Αρχικό πρόγραμμα</title>
<ellipse fill="none" stroke="black" cx="83.94" cy="-83.94" rx="79.89" ry="79.89"/>
<ellipse fill="none" stroke="black" cx="83.94" cy="-83.94" rx="83.89" ry="83.89"/>
<text text-anchor="middle" x="83.94" y="-80.24" font-family="Times,serif" font-size="14.00">Αρχικό πρόγραμμα</text>
</g>
<!-- Μεταγλωττιστής -->
<g id="node2" class="node">
<title>Μεταγλωττιστής</title>
<polygon fill="none" stroke="black" points="316.89,-101.94 203.89,-101.94 203.89,-65.94 316.89,-65.94 316.89,-101.94"/>
<text text-anchor="middle" x="260.39" y="-80.24" font-family="Times,serif" font-size="14.00">Μεταγλωττιστής</text>
</g>
<!-- Αρχικό πρόγραμμα&#45;&gt;Μεταγλωττιστής -->
<g id="edge1" class="edge">
<title>Αρχικό πρόγραμμα&#45;&gt;Μεταγλωττιστής</title>
<path fill="none" stroke="black" d="M168.08,-83.94C176.69,-83.94 185.35,-83.94 193.73,-83.94"/>
<polygon fill="black" stroke="black" points="193.79,-87.44 203.79,-83.94 193.79,-80.44 193.79,-87.44"/>
</g>
<!-- Τελικό πρόγραμμα -->
<g id="node3" class="node">
<title>Τελικό πρόγραμμα</title>
<ellipse fill="none" stroke="black" cx="435.53" cy="-83.94" rx="78.78" ry="78.78"/>
<ellipse fill="none" stroke="black" cx="435.53" cy="-83.94" rx="82.79" ry="82.79"/>
<text text-anchor="middle" x="435.53" y="-80.24" font-family="Times,serif" font-size="14.00">Τελικό πρόγραμμα</text>
</g>
<!-- Μεταγλωττιστής&#45;&gt;Τελικό πρόγραμμα -->
<g id="edge2" class="edge">
<title>Μεταγλωττιστής&#45;&gt;Τελικό πρόγραμμα</title>
<path fill="none" stroke="black" d="M317.12,-83.94C325.29,-83.94 333.89,-83.94 342.55,-83.94"/>
<polygon fill="black" stroke="black" points="342.74,-87.44 352.74,-83.94 342.74,-80.44 342.74,-87.44"/>
</g>
<!-- Συνδετής -->
<g id="node4" class="node">
<title>Συνδετής</title>
<polygon fill="none" stroke="black" points="623.17,-101.94 554.17,-101.94 554.17,-65.94 623.17,-65.94 623.17,-101.94"/>
<text text-anchor="middle" x="588.67" y="-80.24" font-family="Times,serif" font-size="14.00">Συνδετής</text>
</g>
<!-- Τελικό πρόγραμμα&#45;&gt;Συνδετής -->
<g id="edge3" class="edge">
<title>Τελικό πρόγραμμα&#45;&gt;Συνδετής</title>
<path fill="none" stroke="black" d="M518.29,-83.94C527.1,-83.94 535.78,-83.94 543.88,-83.94"/>
<polygon fill="black" stroke="black" points="544.14,-87.44 554.14,-83.94 544.14,-80.44 544.14,-87.44"/>
</g>
<!-- Εκτελέσιμο -->
<g id="node5" class="node">
<title>Εκτελέσιμο</title>
<ellipse fill="lightgrey" stroke="blue" cx="716.47" cy="-83.94" rx="53.11" ry="53.11"/>
<ellipse fill="none" stroke="blue" cx="716.47" cy="-83.94" rx="57.09" ry="57.09"/>
<text text-anchor="middle" x="716.47" y="-80.24" font-family="Times,serif" font-size="14.00">Εκτελέσιμο</text>
</g>
<!-- Συνδετής&#45;&gt;Εκτελέσιμο -->
<g id="edge4" class="edge">
<title>Συνδετής&#45;&gt;Εκτελέσιμο</title>
<path fill="none" stroke="black" d="M623.38,-83.94C631.23,-83.94 639.85,-83.94 648.58,-83.94"/>
<polygon fill="black" stroke="black" points="648.83,-87.44 658.83,-83.94 648.83,-80.44 648.83,-87.44"/>
</g>
</g>
</svg>