<svg xmlns="http://www.w3.org/2000/svg" xmlns:xlink="http://www.w3.org/1999/xlink" width="100.0" height="100.0" viewBox="-5.7 -6.7 18.9 12.4" preserveAspectRatio="xMinYMin meet"><g transform="matrix(1,0,0,-1,0,-1.0)"><g><path fill-rule="evenodd" fill="#66cc99" stroke="#555555" stroke-width="0.37799999999999995" opacity="0.6" d="M 0.0,0.0 L 0.0,-1.0 L 7.5,-1.0 L 7.5,0.0 L 0.0,0.0 z" /><path fill-rule="evenodd" fill="#66cc99" stroke="#555555" stroke-width="0.37799999999999995" opacity="0.6" d="M 0.0,5.0 L 7.5,5.0 L 7.9900857016478035,4.975923633360984 L 8.475451610080642,4.903926402016152 L 8.951423386272312,4.784701678661045 L 9.41341716182545,4.619397662556434 L 9.85698368412999,4.409606321741775 L 10.277851165098012,4.157348061512726 L 10.671966420818228,3.865052266813685 L 11.035533905932738,3.5355339059327373 L 11.365052266813684,3.1719664208182277 L 11.657348061512726,2.777851165098011 L 11.909606321741776,2.3569836841299883 L 12.119397662556434,1.913417161825449 L 12.284701678661044,1.4514233862723116 L 12.403926402016152,0.9754516100806412 L 12.475923633360985,0.490085701647803 L 12.5,0.0 L 12.5,-1.0 L 12.475923633360985,-1.4900857016478035 L 12.403926402016152,-1.9754516100806412 L 12.284701678661044,-2.451423386272311 L 12.119397662556434,-2.913417161825449 L 11.909606321741775,-3.3569836841299887 L 11.657348061512726,-3.777851165098011 L 11.365052266813684,-4.171966420818228 L 11.035533905932738,-4.535533905932738 L 10.671966420818228,-4.865052266813684 L 10.277851165098012,-5.157348061512726 L 9.85698368412999,-5.409606321741775 L 9.41341716182545,-5.619397662556434 L 8.951423386272312,-5.784701678661045 L 8.475451610080642,-5.903926402016152 L 7.9900857016478035,-5.975923633360984 L 7.5,-6.0 L 0.0,-6.0 L -0.49008570164780324,-5.975923633360985 L -0.975451610080641,-5.903926402016152 L -1.4514233862723107,-5.784701678661045 L -1.9134171618254485,-5.619397662556434 L -2.3569836841299887,-5.409606321741776 L -2.77785116509801,-5.157348061512727 L -3.1719664208182268,-4.865052266813685 L -3.5355339059327373,-4.535533905932738 L -3.865052266813685,-4.171966420818228 L -4.157348061512726,-3.777851165098011 L -4.409606321741775,-3.356983684129989 L -4.619397662556434,-2.9134171618254494 L -4.784701678661044,-2.451423386272312 L -4.903926402016152,-1.975451610080643 L -4.975923633360984,-1.4900857016478042 L -5.0,-1.0 L -5.0,0.0 L -4.975923633360984,0.49008570164780413 L -4.903926402016152,0.9754516100806431 L -4.784701678661044,1.451423386272312 L -4.619397662556434,1.9134171618254494 L -4.409606321741775,2.356983684129989 L -4.157348061512726,2.777851165098011 L -3.865052266813685,3.1719664208182277 L -3.5355339059327373,3.5355339059327378 L -3.1719664208182268,3.8650522668136853 L -2.77785116509801,4.157348061512727 L -2.3569836841299887,4.409606321741776 L -1.9134171618254485,4.619397662556434 L -1.4514233862723107,4.784701678661045 L -0.975451610080641,4.903926402016152 L -0.49008570164780324,4.975923633360985 L 0.0,5.0 z" /></g></g></svg>