<svg xmlns="http://www.w3.org/2000/svg" xmlns:xlink="http://www.w3.org/1999/xlink" width="100.0" height="100.0" viewBox="-3.4 -4.9 10.8 10.8" preserveAspectRatio="xMinYMin meet"><g transform="matrix(1,0,0,-1,0,1.0)"><path fill-rule="evenodd" fill="#66cc99" stroke="#555555" stroke-width="0.21600000000000003" opacity="0.6" d="M 7.0,0.5 L 6.975923633360985,0.009914298352196982 L 6.903926402016152,-0.4754516100806412 L 6.784701678661044,-0.9514233862723116 L 6.619397662556434,-1.413417161825449 L 6.409606321741776,-1.8569836841299883 L 6.157348061512726,-2.277851165098011 L 5.865052266813684,-2.6719664208182277 L 5.535533905932738,-3.0355339059327373 L 5.171966420818228,-3.365052266813685 L 4.777851165098012,-3.6573480615127263 L 4.35698368412999,-3.9096063217417747 L 3.913417161825449,-4.119397662556434 L 3.4514233862723116,-4.284701678661045 L 2.9754516100806416,-4.403926402016152 L 2.490085701647804,-4.475923633360984 L 2.0000000000000004,-4.5 L 1.5099142983521967,-4.475923633360985 L 1.024548389919359,-4.403926402016152 L 0.5485766137276893,-4.284701678661045 L 0.08658283817455148,-4.119397662556434 L -0.3569836841299887,-3.9096063217417756 L -0.77785116509801,-3.657348061512727 L -1.1719664208182268,-3.3650522668136853 L -1.5355339059327373,-3.0355339059327378 L -1.8650522668136849,-2.6719664208182277 L -2.1573480615127263,-2.277851165098011 L -2.4096063217417747,-1.8569836841299892 L -2.619397662556434,-1.4134171618254494 L -2.784701678661044,-0.951423386272312 L -2.903926402016152,-0.4754516100806431 L -2.975923633360984,0.009914298352195872 L -3.0,0.4999999999999994 L -2.975923633360985,0.990085701647803 L -2.903926402016152,1.4754516100806419 L -2.784701678661045,1.9514233862723105 L -2.619397662556434,2.413417161825448 L -2.4096063217417756,2.8569836841299883 L -2.157348061512727,3.27785116509801 L -1.8650522668136853,3.6719664208182263 L -1.5355339059327386,4.035533905932738 L -1.1719664208182294,4.3650522668136835 L -0.7778511650980109,4.657348061512726 L -0.35698368412998915,4.909606321741775 L 0.08658283817454837,5.119397662556432 L 0.5485766137276877,5.284701678661044 L 1.0245483899193566,5.403926402016151 L 1.5099142983521978,5.475923633360985 L 1.9999999999999991,5.5 L 2.4900857016478004,5.475923633360985 L 2.9754516100806416,5.403926402016152 L 3.4514233862723103,5.284701678661045 L 3.91341716182545,5.119397662556433 L 4.356983684129988,4.909606321741776 L 4.777851165098009,4.657348061512727 L 5.171966420818228,4.365052266813684 L 5.535533905932737,4.035533905932739 L 5.8650522668136835,3.6719664208182294 L 6.157348061512726,3.277851165098011 L 6.409606321741774,2.8569836841299896 L 6.619397662556432,2.413417161825452 L 6.784701678661044,1.9514233862723125 L 6.903926402016151,1.4754516100806436 L 6.975923633360985,0.9900857016478025 L 7.0,0.5 z" /></g></svg>